<svg viewBox="0 0 24 24" xmlns="http://www.w3.org/2000/svg">
  <path fill="none" d="M0 0h24v24H0z"/>
  <path d="M13.2279,2.68814 C12.5057,2.12641 11.4944,2.12641 10.7722,2.68814 L2.38841,9.20884 C1.63605,9.79401 2.04989,11 3.00297,11 L4.00005,11 L4.00005,19 C4.00005,20.1046 4.89548,21 6.00005,21 L10.9999991,21 L10.9999991,14 C10.9999991,13.4477 11.4478,13 11.9999991,13 C12.5523,13 12.9999991,13.4477 12.9999991,14 L12.9999991,21 L18.0001,21 C19.1046,21 20.0001,20.1046 20.0001,19 L20.0001,11 L20.9971,11 C21.9492,11 22.3648,9.79463 21.6117,9.20884 L13.2279,2.68814 Z" fill="#ffffff"/>
</svg>
